<svg width="30" height="29" viewBox="0 0 30 29" fill="none" xmlns="http://www.w3.org/2000/svg">
<path d="M12.7873 15.0277C12.3656 14.7594 12.2346 14.2039 12.492 13.7754L12.9904 12.9459C13.248 12.5172 13.8004 12.3722 14.2353 12.6189L28.4708 20.6952C28.9214 20.9508 29.0729 21.5275 28.806 21.9715L27.881 23.5111C27.614 23.9554 27.0334 24.0923 26.5961 23.814L12.7873 15.0277Z" fill="white"/>
<rect x="3.77344" y="14.5859" width="11.982" height="7.37352" rx="1.84338" transform="rotate(-57 3.77344 14.5859)" fill="white"/>
<rect x="10.3086" y="3.58984" width="8.29521" height="1.84338" rx="0.92169" transform="rotate(33 10.3086 3.58984)" fill="#545454"/>
<rect x="3.91797" y="13.4316" width="8.29521" height="1.84338" rx="0.92169" transform="rotate(33 3.91797 13.4316)" fill="#545454"/>
<rect x="1.28516" y="23.9766" width="10.1386" height="2.76507" rx="0.92169" fill="#545454"/>
</svg>
